# AST/ASF file generated using VICON BodyLanguage
# -----------------------------------------------
:version 1.10
:name VICON
:units
  mass 1.0
  length 0.45
  angle deg
:documentation
   .ast/.asf automatically generated from VICON data using
   VICON BodyBuilder and BodyLanguage model FoxedUp or BRILLIANT.MOD
:root
   order TX TY TZ RX RY RZ
   axis XYZ
   position 0 0 0  
   orientation 0 0 0 
:bonedata
  begin
     id 1 
     name lhipjoint
     direction 0.722297 -0.617336 0.311742 
     length 2.6635 
     axis 0 0 0  XYZ
  end
  begin
     id 2 
     name lfemur
     direction 0.34202 -0.939693 0  
     length 7.39349  
     axis 0 0 20  XYZ
    dof rx ry rz
    limits (-160.0 20.0)
           (-70.0 70.0)
           (-60.0 70.0)
  end
  begin
     id 3 
     name ltibia
     direction 0.34202 -0.939693 0   
     length 7.36294   
     axis 0 0 20   XYZ
    dof rx
    limits (-10.0 170.0)
  end
  begin
     id 4 
     name lfoot
     direction 0.104879 -0.288152 0.951824   
     length 2.16981   
     axis -90 7.62852e-016 20   XYZ
    dof rx rz
    limits (-45.0 90.0)
           (-70.0 20.0)
  end
  begin
     id 5 
     name ltoes
     direction 1.53586e-011 -4.21895e-011 1   
     length 1.08218   
     axis -90 7.62852e-016 20   XYZ
    dof rx
    limits (-90.0 20.0)
  end
  begin
     id 6 
     name rhipjoint
     direction -0.75102 -0.589393 0.297631   
     length 2.78977  
     axis 0 0 0  XYZ 
  end
  begin
     id 7 
     name rfemur
     direction -0.34202 -0.939693 0   
     length 7.46076   
     axis 0 0 -20   XYZ
    dof rx ry rz
    limits (-160.0 20.0)
           (-70.0 70.0)
           (-70.0 60.0)
  end
  begin
     id 8 
     name rtibia
     direction -0.34202 -0.939693 0   
     length 7.31726   
     axis 0 0 -20   XYZ
    dof rx
    limits (-10.0 170.0)
 end
 begin
     id 9 
     name rfoot
     direction -0.107991 -0.296704 0.948844   
     length 2.09388  
     axis -90 -7.62852e-016 -20   XYZ
    dof rx rz
    limits (-45.0 90.0)
           (-20.0 70.0)
  end
  begin
     id 10 
     name rtoes
     direction -1.53559e-011 -4.21911e-011 1   
     length 1.04433   
     axis -90 -7.62852e-016 -20   XYZ
    dof rx
    limits (-90.0 20.0)
  end
  begin
     id 11 
     name lowerback
     direction 0.0165164 0.98272 0.184358   
     length 1.71896   
     axis 0 0 0   XYZ
    dof rx ry rz
    limits (-20.0 45.0)
           (-30.0 30.0)
           (-30.0 30.0)
  end
  begin
     id 12 
     name upperback
     direction -0.00887249 0.992297 0.123566   
     length 1.71504   
     axis 0 0 0   XYZ
    dof rx ry rz
    limits (-20.0 45.0)
           (-30.0 30.0)
           (-30.0 30.0)
  end
  begin
     id 13 
     name thorax
     direction -0.0157026 0.998908 0.0440032   
     length 1.77022   
     axis 0 0 0   XYZ
    dof rx ry rz
    limits (-20.0 45.0)
           (-30.0 30.0)
           (-30.0 30.0)
  end
  begin
     id 14 
     name lowerneck
     direction -0.0238856 0.998137 0.0561411   
     length 1.89341   
     axis 0 0 0   XYZ
    dof rx ry rz
    limits (-20.0 45.0)
           (-30.0 30.0)
           (-30.0 30.0)
  end
  begin
     id 15 
     name upperneck
     direction 0.0276574 0.952253 -0.304056   
     length 1.86999   
     axis 0 0 0   XYZ
    dof rx ry rz
    limits (-20.0 45.0)
           (-30.0 30.0)
           (-30.0 30.0)
  end
  begin
     id 16
     name head
     direction 0.00800083 0.994258 -0.106712  
     length 1.91492  
     axis 0 0 0   XYZ
    dof rx ry rz
    limits (-20.0 45.0)
           (-30.0 30.0)
           (-30.0 30.0)
  end
  begin
     id 17 
     name lclavicle
     direction 0.97203 0.225407 0.06595  
     length 3.34889  
     axis 0 0 0   XYZ
    dof ry rz
    limits (-20.0 10.0)
           (0.0 20.0)
  end
  begin
     id 18 
     name lhumerus
     direction 1 -4.48973e-011 2.20267e-027   
     length 4.85645   
     axis 180 -30 -90   XYZ
    dof rx ry rz
    limits (-60.0 90.0)
           (-90.0 90.0)
           (-90.0 90.0)
  end
  begin
     id 19
     name lradius
     direction 1 -4.4897e-011 4.60472e-027   
     length 2.79874   
     axis 180 -30 -90   XYZ
    dof rx
    limits (-10.0 170.0)
  end
  begin
     id 20
     name lwrist
     direction 1 -4.48952e-011 1.14928e-026   
     length 1.39937   
     axis -6.29373e-015 90 90   XYZ
    dof ry
    limits (-180.0 0.0)
 end
  begin
     id 21 
     name lhand
     direction 1 -4.48967e-011 2.29886e-026   
     length 0.573398   
     axis -1.46689e-014 90 90   XYZ
    dof rx rz
    limits (-90.0 90.0)
           (-45.0 45.0)
  end
  begin
     id 22 
     name lfingers
     direction 1 -4.48955e-011 4.59726e-026   
     length 0.462289   
     axis -2.93383e-014 90 90   XYZ
    dof rx
    limits (0.0 90.0)
  end
  begin
     id 23
     name lthumb
     direction 0.707107 -6.34866e-011 0.707107   
     length 0.663757   
     axis -90 45 5.69224e-014   XYZ
    dof rx rz
    limits (-45.0 45.0)
           (-45.0 45.0)
  end
  begin
     id 24 
     name rclavicle
     direction -0.981571 0.157346 0.108443   
     length 3.35257  
     axis 0 0 0   XYZ 
    dof ry rz
    limits (-10.0 20.0)
           (-20.0 0.0)
  end
  begin
     id 25 
     name rhumerus
     direction -1 -4.48967e-011 8.58308e-029  
     length 4.67018   
     axis 180 30 90   XYZ
    dof rx ry rz
    limits (-90.0 60.0)
           (-90.0 90.0)
           (-90.0 90.0)
  end
  begin
     id 26 
     name rradius
     direction -1 -4.48958e-011 4.52548e-027   
     length 2.65534   
     axis 180 30 90   XYZ
    dof rx
    limits (-10.0 170.0)
  end
  begin
     id 27 
     name rwrist
     direction -1 -4.48977e-011 1.14952e-026   
     length 1.32767   
     axis -6.29373e-015 -90 -90   XYZ
    dof ry
    limits (-180.0 0.0)
  end
  begin
     id 28
     name rhand
     direction -1 -4.48924e-011 2.29804e-026   
     length 0.594069   
     axis -1.46689e-014 -90 -90   XYZ
    dof rx rz
    limits (-90.0 90.0)
           (-45.0 45.0)
  end
  begin
     id 29
     name rfingers
     direction -1 -4.48998e-011 4.59888e-026   
     length 0.478954   
     axis -2.93383e-014 -90 -90   XYZ
    dof rx
    limits (0.0 90.0)
  end
  begin
     id 30
     name rthumb
     direction -0.707107 -6.34933e-011 0.707107   
     length 0.687685   
     axis -90 -45 -5.69224e-014   XYZ
    dof rx rz
    limits (-45.0 45.0)
           (-45.0 45.0)
  end
:hierarchy
  begin
    root lhipjoint rhipjoint lowerback
    lhipjoint lfemur
    lfemur ltibia
    ltibia lfoot
    lfoot ltoes
    rhipjoint rfemur
    rfemur rtibia
    rtibia rfoot
    rfoot rtoes
    lowerback upperback
    upperback thorax
    thorax lowerneck lclavicle rclavicle
    lowerneck upperneck
    upperneck head
    lclavicle lhumerus
    lhumerus lradius
    lradius lwrist
    lwrist lhand lthumb
    lhand lfingers
    rclavicle rhumerus
    rhumerus rradius
    rradius rwrist
    rwrist rhand rthumb
    rhand rfingers
  end

#!OML:ASF E:\pregnant2\Project 1\Capture day 1\Session 1\pregnant2.ASF
:FULLY-SPECIFIED
:DEGREES
356
root 5.07594 16.7608 30.4861 -149.044 8.8816 181.004
lowerback -13.8294 0.573863 0.979571
upperback -13.2431 3.02789 -2.15119
thorax -6.22743 2.39009 -2.69227
lowerneck -13.7593 -5.36316 -2.46732
upperneck 43.5775 -0.376491 -2.14757
head 18.978 1.1376 0.0183729
rclavicle 2.16675e-014 -1.15295e-014
rhumerus -48.1369 19.2959 -95.895
rradius 71.3527
rwrist 19.193
rhand -6.68966 -9.29555
rfingers 7.12502
rthumb 19.1693 -38.3708
lclavicle 2.16675e-014 -1.15295e-014
lhumerus -58.4367 -10.2593 92.1145
lradius 96.7429
lwrist -22.2969
lhand 2.57195 22.4705
lfingers 7.12502
lthumb 28.0515 50.3935
rfemur -33.3214 12.7851 21.1881
rtibia 28.837
rfoot -22.0772 -15.3397
rtoes -3.79245
lfemur -62.2876 -13.3159 0.214042
ltibia 20.6565
lfoot -1.91911 30.7644
ltoes -6.68067
357
root 5.06708 16.7513 30.3551 -149.143 8.90434 180.953
lowerback -13.8002 0.606732 0.970458
upperback -13.2309 3.06677 -2.21586
thorax -6.22434 2.40538 -2.75285
lowerneck -13.7886 -5.38592 -2.37338
upperneck 43.6394 -0.381734 -2.23051
head 19.0234 1.14739 -0.0372577
rclavicle 4.12727e-014 0
rhumerus -48.0037 19.2627 -95.9071
rradius 70.6607
rwrist 18.9967
rhand -6.76663 -9.38243
rfingers 7.12502
rthumb 19.0953 -38.465
lclavicle 4.12727e-014 0
lhumerus -58.4729 -10.2076 91.9288
lradius 96.5968
lwrist -22.0209
lhand 2.88174 22.6737
lfingers 7.12502
lthumb 28.3475 50.5478
rfemur -32.676 12.6321 21.1927
rtibia 28.7718
rfoot -22.2005 -15.2897
rtoes -4.39828
lfemur -62.1065 -13.7591 0.60082
ltibia 20.0202
lfoot -2.40271 31.9424
ltoes -6.63288
358
root 5.05767 16.7363 30.223 -149.219 8.9427 180.888
lowerback -13.7955 0.611635 0.90139
upperback -13.2264 3.07778 -2.2463
thorax -6.22169 2.41456 -2.74541
lowerneck -13.8248 -5.4091 -2.35579
upperneck 43.7103 -0.390278 -2.25019
head 19.0792 1.15094 -0.0493384
rclavicle -1.63003e-014 -7.15625e-015
rhumerus -47.8951 19.2427 -95.8826
rradius 69.9347
rwrist 18.885
rhand -6.75254 -9.47677
rfingers 7.12502
rthumb 19.1088 -38.5581
lclavicle -1.63003e-014 -7.15625e-015
lhumerus -58.5518 -10.1005 91.7599
lradius 96.4791
lwrist -21.8217
lhand 2.9537 22.6893
lfingers 7.12502
lthumb 28.4163 50.5519
rfemur -32.1534 12.5067 21.1571
rtibia 28.909
rfoot -22.3737 -15.2482
rtoes -5.03697
lfemur -61.8204 -13.732 0.245731
ltibia 19.6219
lfoot -2.68104 32.2465
ltoes -6.94892
359
root 5.04843 16.7199 30.0894 -149.279 8.97161 180.808
lowerback -13.808 0.602581 0.803907
upperback -13.2279 3.07595 -2.27558
thorax -6.21816 2.42105 -2.72161
lowerneck -13.8293 -5.42108 -2.32262
upperneck 43.7481 -0.394711 -2.27295
head 19.1041 1.15666 -0.0655482
rclavicle -2.00773e-014 -2.38542e-015
rhumerus -47.7592 19.2252 -95.8759
rradius 69.1377
rwrist 18.7213
rhand -6.9288 -9.41354
rfingers 7.12502
rthumb 18.9393 -38.5115
lclavicle -2.00773e-014 -2.38542e-015
lhumerus -58.6427 -10.0192 91.5831
lradius 96.3945
lwrist -21.6616
lhand 3.18878 22.8923
lfingers 7.12502
lthumb 28.6409 50.7173
rfemur -31.7288 12.3944 21.0938
rtibia 29.2257
rfoot -22.4376 -15.2546
rtoes -6.15556
lfemur -61.463 -13.4075 -0.617192
ltibia 19.4818
lfoot -2.79801 31.6695
ltoes -7.37961
360
root 5.03584 16.6997 29.954 -149.347 8.99851 180.696
lowerback -13.8046 0.599788 0.719648
upperback -13.2418 3.08401 -2.33314
thorax -6.23496 2.43126 -2.7361
lowerneck -13.8013 -5.44305 -2.26004
upperneck 43.7737 -0.421301 -2.30968
head 19.1104 1.15753 -0.0979105
rclavicle -1.22501e-014 -8.74653e-015
rhumerus -47.6603 19.1475 -95.8618
rradius 68.3783
rwrist 18.5031
rhand -6.94874 -9.48105
rfingers 7.12502
rthumb 18.9201 -38.5809
lclavicle -1.22501e-014 -8.74653e-015
lhumerus -58.7436 -9.98949 91.4344
lradius 96.2655
lwrist -21.6308
lhand 3.14678 22.7464
lfingers 7.12502
lthumb 28.6008 50.5781
rfemur -31.3487 12.2646 20.985
rtibia 29.6557
rfoot -22.7251 -15.2508
rtoes -6.85745
lfemur -61.1722 -13.1288 -1.56515
ltibia 19.7045
lfoot -2.66015 30.6804
ltoes -7.58747
361
root 5.02427 16.6732 29.8152 -149.4 8.88936 180.503
lowerback -13.8462 0.521863 0.578784
upperback -13.2678 3.00717 -2.37823
thorax -6.2478 2.40836 -2.71198
lowerneck -13.7824 -5.46288 -2.22837
upperneck 43.819 -0.442283 -2.31288
head 19.1333 1.16161 -0.106705
rclavicle -1.95057e-014 2.3059e-014
rhumerus -47.6455 19.0452 -95.8474
rradius 67.6432
rwrist 18.3622
rhand -6.84894 -9.64332
rfingers 7.12502
rthumb 19.0161 -38.7337
lclavicle -1.95057e-014 2.3059e-014
lhumerus -58.8623 -9.95699 91.3001
lradius 96.1345
lwrist -21.66
lhand 3.06065 22.6033
lfingers 7.12502
lthumb 28.5185 50.4489
rfemur -31.0241 12.1589 20.8208
rtibia 30.1763
rfoot -23.0773 -15.4098
rtoes -7.53176
lfemur -60.8258 -12.4064 -3.31942
ltibia 20.1456
lfoot -2.23468 28.5395
ltoes -8.51334
362
root 5.01327 16.644 29.672 -149.389 9.17123 180.553
lowerback -13.9798 0.619344 0.508575
upperback -13.2769 3.14995 -2.41203
thorax -6.18017 2.4879 -2.68964
lowerneck -13.8861 -5.51063 -2.20924
upperneck 43.9233 -0.513956 -2.28335
head 19.2297 1.14662 -0.107879
rclavicle -2.63887e-014 2.06736e-014
rhumerus -47.5785 18.9268 -95.8154
rradius 66.8775
rwrist 18.1838
rhand -6.9451 -9.70152
rfingers 7.12502
rthumb 18.9236 -38.801
lclavicle -2.63887e-014 2.06736e-014
lhumerus -58.9002 -10.0137 91.173
lradius 95.9772
lwrist -21.6822
lhand 3.10524 22.6577
lfingers 7.12502
lthumb 28.5611 50.496
rfemur -30.74 12.2937 20.7389
rtibia 30.6742
rfoot -23.282 -15.4349
rtoes -8.3049
lfemur -60.3568 -11.3462 -5.00649
ltibia 20.7767
lfoot -1.88781 26.5255
ltoes -9.79815
363
root 4.99636 16.617 29.5238 -149.699 9.1006 180.352
lowerback -13.82 0.585184 0.39695
upperback -13.2478 3.09862 -2.47518
thorax -6.23562 2.46104 -2.70484
lowerneck -13.8472 -5.56593 -2.24527
upperneck 44.0103 -0.577338 -2.23019
head 19.2765 1.13552 -0.0832922
rclavicle 3.32716e-014 -3.18055e-015
rhumerus -47.6413 18.7891 -95.775
rradius 66.1214
rwrist 17.9684
rhand -7.02441 -9.67422
rfingers 7.12502
rthumb 18.8473 -38.7811
lclavicle 3.32716e-014 -3.18055e-015
lhumerus -59.0832 -10.0515 91.0782
lradius 95.8624
lwrist -21.7272
lhand 3.06452 22.5382
lfingers 7.12502
lthumb 28.5222 50.3831
rfemur -30.0498 12.1701 20.6164
rtibia 31.1177
rfoot -23.5651 -15.5944
rtoes -8.9303
lfemur -59.7296 -10.7007 -6.88216
ltibia 21.4412
lfoot -1.21157 24.5583
ltoes -11.6152
364
root 4.97667 16.6079 29.377 -149.971 9.08191 180.133
lowerback -13.6559 0.570712 0.276349
upperback -13.2425 3.07973 -2.55046
thorax -6.31866 2.45308 -2.72706
lowerneck -13.8097 -5.63848 -2.3097
upperneck 44.093 -0.667072 -2.1668
head 19.3219 1.10986 -0.0539307
rclavicle 1.11568e-014 2.06736e-014
rhumerus -47.7689 18.6163 -95.7052
rradius 65.4106
rwrist 17.7667
rhand -7.03041 -9.83005
rfingers 7.12502
rthumb 18.8416 -38.9375
lclavicle 1.11568e-014 2.06736e-014
lhumerus -59.2675 -10.1076 91.0557
lradius 95.7346
lwrist -21.7882
lhand 2.78657 22.4191
lfingers 7.12502
lthumb 28.2566 50.3083
rfemur -29.4022 12.031 20.4312
rtibia 31.5032
rfoot -23.6605 -15.6623
rtoes -9.50776
lfemur -59.3524 -10.4259 -8.12889
ltibia 22.0478
lfoot 0.827319 23.0682
ltoes -12.6436
365
root 4.95644 16.6163 29.2341 -150.268 9.06962 179.85
lowerback -13.3973 0.521759 0.0673867
upperback -13.2481 3.01873 -2.62317
thorax -6.47008 2.42962 -2.70639
lowerneck -13.8043 -5.69437 -2.29222
upperneck 44.1984 -0.716252 -2.17949
head 19.3894 1.10521 -0.0682787
rclavicle -2.03257e-014 3.57812e-014
rhumerus -47.8638 18.417 -95.6293
rradius 64.6254
rwrist 17.5946
rhand -7.06352 -9.80629
rfingers 7.12502
rthumb 18.8097 -38.9169
lclavicle -2.03257e-014 3.57812e-014
lhumerus -59.4071 -10.1716 91.0312
lradius 95.5738
lwrist -21.819
lhand 2.57836 22.382
lfingers 7.12502
lthumb 28.0576 50.3039
rfemur -28.7553 11.8626 20.1677
rtibia 31.8684
rfoot -23.5769 -15.6656
rtoes -10.2288
lfemur -59.1357 -10.7103 -8.58591
ltibia 22.4436
lfoot 2.9022 22.4569
ltoes -11.743
